<svg width="673" height="673" viewBox="-20 -20 700 700" fill="none" xmlns="http://www.w3.org/2000/svg">
<circle cx="336.5" cy="336.5" r="312.5" stroke="#E6E6E6" stroke-width="60" stroke-linecap="round" stroke-linejoin="round"/>
<path d="M557.471 557.471C523.933 591.009 483.201 616.472 438.362 631.932C393.523 647.393 345.753 652.443 298.672 646.702C251.592 640.961 206.435 624.578 166.625 598.795C126.816 573.013 93.397 538.507 68.9017 497.892" stroke="#E6BD27" stroke-width="60" stroke-linecap="round" stroke-linejoin="round"/>
<path d="M623.166 212.087C651.42 277.186 656.674 349.964 638.064 418.447C619.455 486.93 578.09 547.039 520.775 588.886" stroke="#03B47A" stroke-width="60" stroke-linecap="round" stroke-linejoin="round"/>
<path d="M336.5 24C400.132 24 462.248 43.4253 514.543 79.6789C566.837 115.932 606.818 167.286 629.141 226.875" stroke="#FA3975" stroke-width="60" stroke-linecap="round" stroke-linejoin="round"/>
<circle cx="336.5" cy="336.5" r="96.5" fill="#E6E6E6"/>
</svg>
